<?xml version="1.0" encoding="UTF-8"?>
<svg xmlns="http://www.w3.org/2000/svg" xmlns:xlink="http://www.w3.org/1999/xlink" width="28px" height="28px" viewBox="0 0 28 28" version="1.1">
<g id="surface1">
<path style=" stroke:none;fill-rule:nonzero;fill:rgb(0%,0%,0%);fill-opacity:1;" d="M 23.332031 5.832031 L 19.601562 5.832031 L 17.5 3.5 L 10.5 3.5 L 8.398438 5.832031 L 4.667969 5.832031 C 3.382812 5.832031 2.332031 6.882812 2.332031 8.167969 L 2.332031 22.167969 C 2.332031 23.449219 3.382812 24.5 4.667969 24.5 L 23.332031 24.5 C 24.617188 24.5 25.667969 23.449219 25.667969 22.167969 L 25.667969 8.167969 C 25.667969 6.882812 24.617188 5.832031 23.332031 5.832031 Z M 23.332031 22.167969 L 14 22.167969 L 14 21 C 10.734375 21 8.167969 18.433594 8.167969 15.167969 C 8.167969 11.898438 10.734375 9.332031 14 9.332031 L 14 8.167969 L 23.332031 8.167969 Z M 19.832031 15.167969 C 19.832031 11.898438 17.265625 9.332031 14 9.332031 L 14 11.433594 C 16.101562 11.433594 17.734375 13.066406 17.734375 15.167969 C 17.734375 17.265625 16.101562 18.898438 14 18.898438 L 14 21 C 17.265625 21 19.832031 18.433594 19.832031 15.167969 Z M 10.265625 15.167969 C 10.265625 17.265625 11.898438 18.898438 14 18.898438 L 14 11.433594 C 11.898438 11.433594 10.265625 13.066406 10.265625 15.167969 Z M 10.265625 15.167969 "/>
</g>
</svg>
